<svg id="visual" viewBox="0 0 1500 700" width="1500" height="700" xmlns="http://www.w3.org/2000/svg" xmlns:xlink="http://www.w3.org/1999/xlink" version="1.1"><rect x="0" y="0" width="1500" height="700" fill="#041916"></rect><path d="M0 438L214 526L429 503L643 450L857 474L1071 439L1286 414L1500 463L1500 701L1286 701L1071 701L857 701L643 701L429 701L214 701L0 701Z" fill="#16423c"></path><path d="M0 468L214 449L429 433L643 491L857 554L1071 516L1286 525L1500 505L1500 701L1286 701L1071 701L857 701L643 701L429 701L214 701L0 701Z" fill="#26534b"></path><path d="M0 502L214 470L429 478L643 526L857 493L1071 529L1286 509L1500 553L1500 701L1286 701L1071 701L857 701L643 701L429 701L214 701L0 701Z" fill="#37645a"></path><path d="M0 532L214 568L429 557L643 595L857 568L1071 556L1286 547L1500 535L1500 701L1286 701L1071 701L857 701L643 701L429 701L214 701L0 701Z" fill="#47766a"></path><path d="M0 592L214 613L429 580L643 596L857 605L1071 583L1286 591L1500 591L1500 701L1286 701L1071 701L857 701L643 701L429 701L214 701L0 701Z" fill="#588979"></path><path d="M0 610L214 639L429 660L643 663L857 646L1071 658L1286 657L1500 643L1500 701L1286 701L1071 701L857 701L643 701L429 701L214 701L0 701Z" fill="#6a9c89"></path></svg>